  0
SECTION
  2
HEADER
  9
$ACADVER
  1
AC1009
  9
$FILLMODE
 70
0
  9
$EXTMIN
 10
-0.2032
 20
-17.0150
 30
0.0000
  9
$EXTMAX
 10
92.0150
 20
87.9452
 30
0.0000
  0
ENDSEC
  0
SECTION
  2
TABLES
  0
TABLE
  2
LTYPE
 70
1
  0
LTYPE
  2
CONTINUOUS
 70
64
  3
Solid line
 72
65
 73
0
 40
0
  0
ENDTAB
  0
TABLE
  2
LAYER
 70
255
  0
LAYER
  2
20
 70
64
 62
178
  6
CONTINUOUS
  0
LAYER
  2
112
 70
64
 62
22
  6
CONTINUOUS
  0
ENDTAB
  0
ENDSEC
  0
SECTION
  2
BLOCKS
  0
BLOCK
  8
0
  2
RECT
 70
64
 10
0.0000
 20
0.0000
 30
0.0000
  3
RECT
  0
SOLID
  8
0
 10
-0.5000
 20
-0.5000
 30
0.0000
 11
0.5000
 21
-0.5000
 31
0.0000
 12
-0.5000
 22
0.5000
 32
0.0000
 13
0.5000
 23
0.5000
 33
0.0000
  0
ENDBLK
  8
0
  0
BLOCK
  8
0
  2
PIE
 70
64
 10
0.0000
 20
0.0000
 30
0.0000
  3
PIE
  0
CIRCLE
  8
0
 10
0.0000
 20
0.0000
 30
0.0000
 40
0.5000
  0
ENDBLK
  8
0
  0
BLOCK
  8
0
  2
OCTAGONP
 70
64
 10
0.0000
 20
0.0000
 30
0.0000
  3
OCTAGONP
  0
POLYLINE
  8
0
 66
1
 10
0.0000
 20
0.0000
 30
0.0000
 40
0.0000
 41
0.0000
 70
1
  0
VERTEX
  8
0
 10
-0.5000
 20
-0.2071
 30
0.0000
  0
VERTEX
  8
0
 10
-0.5000
 20
0.2071
 30
0.0000
  0
VERTEX
  8
0
 10
-0.2071
 20
0.5000
 30
0.0000
  0
VERTEX
  8
0
 10
0.2071
 20
0.5000
 30
0.0000
  0
VERTEX
  8
0
 10
0.5000
 20
0.2071
 30
0.0000
  0
VERTEX
  8
0
 10
0.5000
 20
-0.2071
 30
0.0000
  0
VERTEX
  8
0
 10
0.2071
 20
-0.5000
 30
0.0000
  0
VERTEX
  8
0
 10
-0.2071
 20
-0.5000
 30
0.0000
  0
SEQEND
  8
0
  0
ENDBLK
  8
0
  0
BLOCK
  8
0
  2
SQUAREP
 70
64
 10
0.0000
 20
0.0000
 30
0.0000
  3
SQUAREP
  0
SOLID
  8
0
 10
-0.5000
 20
-0.5000
 30
0.0000
 11
0.5000
 21
-0.5000
 31
0.0000
 12
-0.5000
 22
0.5000
 32
0.0000
 13
0.5000
 23
0.5000
 33
0.0000
  0
ENDBLK
  8
0
  0
BLOCK
  8
0
  2
ROUNDP
 70
64
 10
0.0000
 20
0.0000
 30
0.0000
  3
ROUNDP
  0
CIRCLE
  8
0
 10
0.0000
 20
0.0000
 30
0.0000
 40
0.5000
  0
ENDBLK
  8
0
  0
BLOCK
  8
0
  2
ANNULUSP
 70
64
 10
0.0000
 20
0.0000
 30
0.0000
  3
ANNULUSP
  0
CIRCLE
  8
0
 10
0.0000
 20
0.0000
 30
0.0000
 40
0.5000
  0
ENDBLK
  8
0
  0
BLOCK
  8
0
  2
THERMALP
 70
64
 10
0.0000
 20
0.0000
 30
0.0000
  3
THERMALP
  0
LINE
  8
0
 10
-0.2379
 20
0.4500
 30
0.0000
 11
0.2379
 21
0.4500
 31
0.0000
  0
LINE
  8
0
 10
0.4500
 20
0.2379
 30
0.0000
 11
0.4500
 21
-0.2379
 31
0.0000
  0
LINE
  8
0
 10
0.2379
 20
-0.4500
 30
0.0000
 11
-0.2379
 21
-0.4500
 31
0.0000
  0
LINE
  8
0
 10
-0.4500
 20
-0.2379
 30
0.0000
 11
-0.4500
 21
0.2379
 31
0.0000
  0
ENDBLK
  8
0
  0
BLOCK
  8
0
  2
OCTAGONV
 70
64
 10
0.0000
 20
0.0000
 30
0.0000
  3
OCTAGONV
  0
POLYLINE
  8
0
 66
1
 10
0.0000
 20
0.0000
 30
0.0000
 40
0.0000
 41
0.0000
 70
1
  0
VERTEX
  8
0
 10
-0.5000
 20
-0.2071
 30
0.0000
  0
VERTEX
  8
0
 10
-0.5000
 20
0.2071
 30
0.0000
  0
VERTEX
  8
0
 10
-0.2071
 20
0.5000
 30
0.0000
  0
VERTEX
  8
0
 10
0.2071
 20
0.5000
 30
0.0000
  0
VERTEX
  8
0
 10
0.5000
 20
0.2071
 30
0.0000
  0
VERTEX
  8
0
 10
0.5000
 20
-0.2071
 30
0.0000
  0
VERTEX
  8
0
 10
0.2071
 20
-0.5000
 30
0.0000
  0
VERTEX
  8
0
 10
-0.2071
 20
-0.5000
 30
0.0000
  0
SEQEND
  8
0
  0
ENDBLK
  8
0
  0
BLOCK
  8
0
  2
SQUAREV
 70
64
 10
0.0000
 20
0.0000
 30
0.0000
  3
SQUAREV
  0
SOLID
  8
0
 10
-0.5000
 20
-0.5000
 30
0.0000
 11
0.5000
 21
-0.5000
 31
0.0000
 12
-0.5000
 22
0.5000
 32
0.0000
 13
0.5000
 23
0.5000
 33
0.0000
  0
ENDBLK
  8
0
  0
BLOCK
  8
0
  2
ROUNDV
 70
64
 10
0.0000
 20
0.0000
 30
0.0000
  3
ROUNDV
  0
CIRCLE
  8
0
 10
0.0000
 20
0.0000
 30
0.0000
 40
0.5000
  0
ENDBLK
  8
0
  0
BLOCK
  8
0
  2
ANNULUSV
 70
64
 10
0.0000
 20
0.0000
 30
0.0000
  3
ANNULUSV
  0
CIRCLE
  8
0
 10
0.0000
 20
0.0000
 30
0.0000
 40
0.5000
  0
ENDBLK
  8
0
  0
BLOCK
  8
0
  2
THERMALV
 70
64
 10
0.0000
 20
0.0000
 30
0.0000
  3
THERMALV
  0
LINE
  8
0
 10
-0.2379
 20
0.4500
 30
0.0000
 11
0.2379
 21
0.4500
 31
0.0000
  0
LINE
  8
0
 10
0.4500
 20
0.2379
 30
0.0000
 11
0.4500
 21
-0.2379
 31
0.0000
  0
LINE
  8
0
 10
0.2379
 20
-0.4500
 30
0.0000
 11
-0.2379
 21
-0.4500
 31
0.0000
  0
LINE
  8
0
 10
-0.4500
 20
-0.2379
 30
0.0000
 11
-0.4500
 21
0.2379
 31
0.0000
  0
ENDBLK
  8
0
  0
ENDSEC
  0
SECTION
  2
ENTITIES
  0
LINE
  8
20
 10
5.0000
 20
0.0000
 30
0.0000
 11
65.0000
 21
0.0000
 31
0.0000
  0
LINE
  8
20
 10
70.0000
 20
5.0000
 30
0.0000
 11
70.0000
 21
65.0000
 31
0.0000
  0
LINE
  8
20
 10
65.0000
 20
70.0000
 30
0.0000
 11
55.0000
 21
70.0000
 31
0.0000
  0
LINE
  8
20
 10
15.0000
 20
70.0000
 30
0.0000
 11
5.0000
 21
70.0000
 31
0.0000
  0
LINE
  8
20
 10
0.0000
 20
65.0000
 30
0.0000
 11
0.0000
 21
5.0000
 31
0.0000
  0
LINE
  8
20
 10
20.0000
 20
65.0000
 30
0.0000
 11
20.0000
 21
25.0000
 31
0.0000
  0
LINE
  8
20
 10
25.0000
 20
20.0000
 30
0.0000
 11
45.0000
 21
20.0000
 31
0.0000
  0
LINE
  8
20
 10
50.0000
 20
25.0000
 30
0.0000
 11
50.0000
 21
65.0000
 31
0.0000
  0
ARC
  8
20
 10
5.0000
 20
65.0000
 30
0.0000
 40
5.0000
 50
90.0000
 51
180.0000
  0
ARC
  8
20
 10
65.0000
 20
65.0000
 30
0.0000
 40
5.0000
 50
0.0000
 51
90.0000
  0
ARC
  8
20
 10
5.0000
 20
5.0000
 30
0.0000
 40
5.0000
 50
180.0000
 51
270.0000
  0
ARC
  8
20
 10
65.0000
 20
5.0000
 30
0.0000
 40
5.0000
 50
270.0000
 51
0.0000
  0
ARC
  8
20
 10
25.0000
 20
25.0000
 30
0.0000
 40
5.0000
 50
180.0000
 51
270.0000
  0
ARC
  8
20
 10
45.0000
 20
25.0000
 30
0.0000
 40
5.0000
 50
270.0000
 51
0.0000
  0
ARC
  8
20
 10
15.0000
 20
65.0000
 30
0.0000
 40
5.0000
 50
0.0000
 51
90.0000
  0
ARC
  8
20
 10
55.0000
 20
65.0000
 30
0.0000
 40
5.0000
 50
90.0000
 51
180.0000
  0
LINE
  8
112
 10
14.8028
 20
4.2888
 30
0.0000
 11
14.8028
 21
5.7124
 31
0.0000
  0
LINE
  8
112
 10
14.8028
 20
5.0006
 30
0.0000
 11
15.7519
 21
5.0006
 31
0.0000
  0
LINE
  8
112
 10
15.7519
 20
5.7124
 30
0.0000
 11
15.7519
 21
4.2888
 31
0.0000
  0
LINE
  8
112
 10
16.3464
 20
5.4751
 30
0.0000
 11
16.5837
 21
5.7124
 31
0.0000
  0
LINE
  8
112
 10
16.5837
 20
5.7124
 30
0.0000
 11
17.0583
 21
5.7124
 31
0.0000
  0
LINE
  8
112
 10
17.0583
 20
5.7124
 30
0.0000
 11
17.2955
 21
5.4751
 31
0.0000
  0
LINE
  8
112
 10
17.2955
 20
5.4751
 30
0.0000
 11
17.2955
 21
5.2379
 31
0.0000
  0
LINE
  8
112
 10
17.2955
 20
5.2379
 30
0.0000
 11
17.0583
 21
5.0006
 31
0.0000
  0
LINE
  8
112
 10
17.0583
 20
5.0006
 30
0.0000
 11
16.8210
 21
5.0006
 31
0.0000
  0
LINE
  8
112
 10
17.0583
 20
5.0006
 30
0.0000
 11
17.2955
 21
4.7633
 31
0.0000
  0
LINE
  8
112
 10
17.2955
 20
4.7633
 30
0.0000
 11
17.2955
 21
4.5261
 31
0.0000
  0
LINE
  8
112
 10
17.2955
 20
4.5261
 30
0.0000
 11
17.0583
 21
4.2888
 31
0.0000
  0
LINE
  8
112
 10
17.0583
 20
4.2888
 30
0.0000
 11
16.5837
 21
4.2888
 31
0.0000
  0
LINE
  8
112
 10
16.5837
 20
4.2888
 30
0.0000
 11
16.3464
 21
4.5261
 31
0.0000
  0
LINE
  8
112
 10
17.8901
 20
4.0515
 30
0.0000
 11
18.8391
 21
4.0515
 31
0.0000
  0
LINE
  8
112
 10
20.3827
 20
5.4751
 30
0.0000
 11
20.1455
 21
5.7124
 31
0.0000
  0
LINE
  8
112
 10
20.1455
 20
5.7124
 30
0.0000
 11
19.6709
 21
5.7124
 31
0.0000
  0
LINE
  8
112
 10
19.6709
 20
5.7124
 30
0.0000
 11
19.4337
 21
5.4751
 31
0.0000
  0
LINE
  8
112
 10
19.4337
 20
5.4751
 30
0.0000
 11
19.4337
 21
5.2379
 31
0.0000
  0
LINE
  8
112
 10
19.4337
 20
5.2379
 30
0.0000
 11
19.6709
 21
5.0006
 31
0.0000
  0
LINE
  8
112
 10
19.6709
 20
5.0006
 30
0.0000
 11
20.1455
 21
5.0006
 31
0.0000
  0
LINE
  8
112
 10
20.1455
 20
5.0006
 30
0.0000
 11
20.3827
 21
4.7633
 31
0.0000
  0
LINE
  8
112
 10
20.3827
 20
4.7633
 30
0.0000
 11
20.3827
 21
4.5261
 31
0.0000
  0
LINE
  8
112
 10
20.3827
 20
4.5261
 30
0.0000
 11
20.1455
 21
4.2888
 31
0.0000
  0
LINE
  8
112
 10
20.1455
 20
4.2888
 30
0.0000
 11
19.6709
 21
4.2888
 31
0.0000
  0
LINE
  8
112
 10
19.6709
 20
4.2888
 30
0.0000
 11
19.4337
 21
4.5261
 31
0.0000
  0
LINE
  8
112
 10
20.9773
 20
5.7124
 30
0.0000
 11
20.9773
 21
4.2888
 31
0.0000
  0
LINE
  8
112
 10
20.9773
 20
4.2888
 30
0.0000
 11
21.4518
 21
4.7633
 31
0.0000
  0
LINE
  8
112
 10
21.4518
 20
4.7633
 30
0.0000
 11
21.9263
 21
4.2888
 31
0.0000
  0
LINE
  8
112
 10
21.9263
 20
4.2888
 30
0.0000
 11
21.9263
 21
5.7124
 31
0.0000
  0
LINE
  8
112
 10
22.5209
 20
4.2888
 30
0.0000
 11
22.5209
 21
5.7124
 31
0.0000
  0
LINE
  8
112
 10
22.5209
 20
5.7124
 30
0.0000
 11
23.2327
 21
5.7124
 31
0.0000
  0
LINE
  8
112
 10
23.2327
 20
5.7124
 30
0.0000
 11
23.4699
 21
5.4751
 31
0.0000
  0
LINE
  8
112
 10
23.4699
 20
5.4751
 30
0.0000
 11
23.4699
 21
5.0006
 31
0.0000
  0
LINE
  8
112
 10
23.4699
 20
5.0006
 30
0.0000
 11
23.2327
 21
4.7633
 31
0.0000
  0
LINE
  8
112
 10
23.2327
 20
4.7633
 30
0.0000
 11
22.5209
 21
4.7633
 31
0.0000
  0
LINE
  8
112
 10
24.3017
 20
5.2379
 30
0.0000
 11
24.7763
 21
5.2379
 31
0.0000
  0
LINE
  8
112
 10
24.7763
 20
5.2379
 30
0.0000
 11
25.0136
 21
5.0006
 31
0.0000
  0
LINE
  8
112
 10
25.0136
 20
5.0006
 30
0.0000
 11
25.0136
 21
4.2888
 31
0.0000
  0
LINE
  8
112
 10
25.0136
 20
4.2888
 30
0.0000
 11
24.3017
 21
4.2888
 31
0.0000
  0
LINE
  8
112
 10
24.3017
 20
4.2888
 30
0.0000
 11
24.0645
 21
4.5261
 31
0.0000
  0
LINE
  8
112
 10
24.0645
 20
4.5261
 30
0.0000
 11
24.3017
 21
4.7633
 31
0.0000
  0
LINE
  8
112
 10
24.3017
 20
4.7633
 30
0.0000
 11
25.0136
 21
4.7633
 31
0.0000
  0
LINE
  8
112
 10
26.5572
 20
5.7124
 30
0.0000
 11
26.5572
 21
4.2888
 31
0.0000
  0
LINE
  8
112
 10
26.5572
 20
4.2888
 30
0.0000
 11
25.8453
 21
4.2888
 31
0.0000
  0
LINE
  8
112
 10
25.8453
 20
4.2888
 30
0.0000
 11
25.6081
 21
4.5261
 31
0.0000
  0
LINE
  8
112
 10
25.6081
 20
4.5261
 30
0.0000
 11
25.6081
 21
5.0006
 31
0.0000
  0
LINE
  8
112
 10
25.6081
 20
5.0006
 30
0.0000
 11
25.8453
 21
5.2379
 31
0.0000
  0
LINE
  8
112
 10
25.8453
 20
5.2379
 30
0.0000
 11
26.5572
 21
5.2379
 31
0.0000
  0
LINE
  8
112
 10
27.1517
 20
4.0515
 30
0.0000
 11
28.1008
 21
4.0515
 31
0.0000
  0
LINE
  8
112
 10
29.6444
 20
5.4751
 30
0.0000
 11
29.4071
 21
5.7124
 31
0.0000
  0
LINE
  8
112
 10
29.4071
 20
5.7124
 30
0.0000
 11
28.9326
 21
5.7124
 31
0.0000
  0
LINE
  8
112
 10
28.9326
 20
5.7124
 30
0.0000
 11
28.6953
 21
5.4751
 31
0.0000
  0
LINE
  8
112
 10
28.6953
 20
5.4751
 30
0.0000
 11
28.6953
 21
5.2379
 31
0.0000
  0
LINE
  8
112
 10
28.6953
 20
5.2379
 30
0.0000
 11
28.9326
 21
5.0006
 31
0.0000
  0
LINE
  8
112
 10
28.9326
 20
5.0006
 30
0.0000
 11
29.4071
 21
5.0006
 31
0.0000
  0
LINE
  8
112
 10
29.4071
 20
5.0006
 30
0.0000
 11
29.6444
 21
4.7633
 31
0.0000
  0
LINE
  8
112
 10
29.6444
 20
4.7633
 30
0.0000
 11
29.6444
 21
4.5261
 31
0.0000
  0
LINE
  8
112
 10
29.6444
 20
4.5261
 30
0.0000
 11
29.4071
 21
4.2888
 31
0.0000
  0
LINE
  8
112
 10
29.4071
 20
4.2888
 30
0.0000
 11
28.9326
 21
4.2888
 31
0.0000
  0
LINE
  8
112
 10
28.9326
 20
4.2888
 30
0.0000
 11
28.6953
 21
4.5261
 31
0.0000
  0
LINE
  8
112
 10
30.2389
 20
4.2888
 30
0.0000
 11
30.2389
 21
5.2379
 31
0.0000
  0
LINE
  8
112
 10
30.2389
 20
5.2379
 30
0.0000
 11
30.4762
 21
5.2379
 31
0.0000
  0
LINE
  8
112
 10
30.4762
 20
5.2379
 30
0.0000
 11
30.7134
 21
5.0006
 31
0.0000
  0
LINE
  8
112
 10
30.7134
 20
5.0006
 30
0.0000
 11
30.7134
 21
4.2888
 31
0.0000
  0
LINE
  8
112
 10
30.7134
 20
5.0006
 30
0.0000
 11
30.9507
 21
5.2379
 31
0.0000
  0
LINE
  8
112
 10
30.9507
 20
5.2379
 30
0.0000
 11
31.1880
 21
5.0006
 31
0.0000
  0
LINE
  8
112
 10
31.1880
 20
5.0006
 30
0.0000
 11
31.1880
 21
4.2888
 31
0.0000
  0
LINE
  8
112
 10
32.0198
 20
5.2379
 30
0.0000
 11
32.4943
 21
5.2379
 31
0.0000
  0
LINE
  8
112
 10
32.4943
 20
5.2379
 30
0.0000
 11
32.7316
 21
5.0006
 31
0.0000
  0
LINE
  8
112
 10
32.7316
 20
5.0006
 30
0.0000
 11
32.7316
 21
4.2888
 31
0.0000
  0
LINE
  8
112
 10
32.7316
 20
4.2888
 30
0.0000
 11
32.0198
 21
4.2888
 31
0.0000
  0
LINE
  8
112
 10
32.0198
 20
4.2888
 30
0.0000
 11
31.7825
 21
4.5261
 31
0.0000
  0
LINE
  8
112
 10
31.7825
 20
4.5261
 30
0.0000
 11
32.0198
 21
4.7633
 31
0.0000
  0
LINE
  8
112
 10
32.0198
 20
4.7633
 30
0.0000
 11
32.7316
 21
4.7633
 31
0.0000
  0
LINE
  8
112
 10
33.3261
 20
5.7124
 30
0.0000
 11
33.5634
 21
5.7124
 31
0.0000
  0
LINE
  8
112
 10
33.5634
 20
5.7124
 30
0.0000
 11
33.5634
 21
4.2888
 31
0.0000
  0
LINE
  8
112
 10
33.3261
 20
4.2888
 30
0.0000
 11
33.8007
 21
4.2888
 31
0.0000
  0
LINE
  8
112
 10
34.3552
 20
5.7124
 30
0.0000
 11
34.5924
 21
5.7124
 31
0.0000
  0
LINE
  8
112
 10
34.5924
 20
5.7124
 30
0.0000
 11
34.5924
 21
4.2888
 31
0.0000
  0
LINE
  8
112
 10
34.3552
 20
4.2888
 30
0.0000
 11
34.8297
 21
4.2888
 31
0.0000
  0
LINE
  8
112
 10
35.3843
 20
4.0515
 30
0.0000
 11
36.3333
 21
4.0515
 31
0.0000
  0
LINE
  8
112
 10
36.9279
 20
4.2888
 30
0.0000
 11
36.9279
 21
5.7124
 31
0.0000
  0
LINE
  8
112
 10
36.9279
 20
5.7124
 30
0.0000
 11
37.6397
 21
5.7124
 31
0.0000
  0
LINE
  8
112
 10
37.6397
 20
5.7124
 30
0.0000
 11
37.8769
 21
5.4751
 31
0.0000
  0
LINE
  8
112
 10
37.8769
 20
5.4751
 30
0.0000
 11
37.8769
 21
5.0006
 31
0.0000
  0
LINE
  8
112
 10
37.8769
 20
5.0006
 30
0.0000
 11
37.6397
 21
4.7633
 31
0.0000
  0
LINE
  8
112
 10
37.6397
 20
4.7633
 30
0.0000
 11
36.9279
 21
4.7633
 31
0.0000
  0
LINE
  8
112
 10
37.4024
 20
4.7633
 30
0.0000
 11
37.8769
 21
4.2888
 31
0.0000
  0
LINE
  8
112
 10
39.1833
 20
4.2888
 30
0.0000
 11
38.7087
 21
4.2888
 31
0.0000
  0
LINE
  8
112
 10
38.7087
 20
4.2888
 30
0.0000
 11
38.4715
 21
4.5261
 31
0.0000
  0
LINE
  8
112
 10
38.4715
 20
4.5261
 30
0.0000
 11
38.4715
 21
5.0006
 31
0.0000
  0
LINE
  8
112
 10
38.4715
 20
5.0006
 30
0.0000
 11
38.7087
 21
5.2379
 31
0.0000
  0
LINE
  8
112
 10
38.7087
 20
5.2379
 30
0.0000
 11
39.1833
 21
5.2379
 31
0.0000
  0
LINE
  8
112
 10
39.1833
 20
5.2379
 30
0.0000
 11
39.4205
 21
5.0006
 31
0.0000
  0
LINE
  8
112
 10
39.4205
 20
5.0006
 30
0.0000
 11
39.4205
 21
4.7633
 31
0.0000
  0
LINE
  8
112
 10
39.4205
 20
4.7633
 30
0.0000
 11
38.4715
 21
4.7633
 31
0.0000
  0
LINE
  8
112
 10
40.0151
 20
5.2379
 30
0.0000
 11
40.4896
 21
4.2888
 31
0.0000
  0
LINE
  8
112
 10
40.4896
 20
4.2888
 30
0.0000
 11
40.9641
 21
5.2379
 31
0.0000
  0
LINE
  8
112
 10
41.5587
 20
4.0515
 30
0.0000
 11
42.5078
 21
4.0515
 31
0.0000
  0
LINE
  8
112
 10
43.1023
 20
5.4751
 30
0.0000
 11
43.3396
 21
5.7124
 31
0.0000
  0
LINE
  8
112
 10
43.3396
 20
5.7124
 30
0.0000
 11
43.8141
 21
5.7124
 31
0.0000
  0
LINE
  8
112
 10
43.8141
 20
5.7124
 30
0.0000
 11
44.0514
 21
5.4751
 31
0.0000
  0
LINE
  8
112
 10
44.0514
 20
5.4751
 30
0.0000
 11
44.0514
 21
5.2379
 31
0.0000
  0
LINE
  8
112
 10
44.0514
 20
5.2379
 30
0.0000
 11
43.8141
 21
5.0006
 31
0.0000
  0
LINE
  8
112
 10
43.8141
 20
5.0006
 30
0.0000
 11
43.5768
 21
5.0006
 31
0.0000
  0
LINE
  8
112
 10
43.8141
 20
5.0006
 30
0.0000
 11
44.0514
 21
4.7633
 31
0.0000
  0
LINE
  8
112
 10
44.0514
 20
4.7633
 30
0.0000
 11
44.0514
 21
4.5261
 31
0.0000
  0
LINE
  8
112
 10
44.0514
 20
4.5261
 30
0.0000
 11
43.8141
 21
4.2888
 31
0.0000
  0
LINE
  8
112
 10
43.8141
 20
4.2888
 30
0.0000
 11
43.3396
 21
4.2888
 31
0.0000
  0
LINE
  8
112
 10
43.3396
 20
4.2888
 30
0.0000
 11
43.1023
 21
4.5261
 31
0.0000
  0
LINE
  8
112
 10
44.6459
 20
4.0515
 30
0.0000
 11
45.5950
 21
4.0515
 31
0.0000
  0
LINE
  8
112
 10
46.1895
 20
5.7124
 30
0.0000
 11
46.1895
 21
4.2888
 31
0.0000
  0
LINE
  8
112
 10
46.1895
 20
4.2888
 30
0.0000
 11
47.1386
 21
4.2888
 31
0.0000
  0
LINE
  8
112
 10
47.9704
 20
4.2888
 30
0.0000
 11
48.4449
 21
4.2888
 31
0.0000
  0
LINE
  8
112
 10
48.4449
 20
4.2888
 30
0.0000
 11
48.6822
 21
4.5261
 31
0.0000
  0
LINE
  8
112
 10
48.6822
 20
4.5261
 30
0.0000
 11
48.6822
 21
5.0006
 31
0.0000
  0
LINE
  8
112
 10
48.6822
 20
5.0006
 30
0.0000
 11
48.4449
 21
5.2379
 31
0.0000
  0
LINE
  8
112
 10
48.4449
 20
5.2379
 30
0.0000
 11
47.9704
 21
5.2379
 31
0.0000
  0
LINE
  8
112
 10
47.9704
 20
5.2379
 30
0.0000
 11
47.7331
 21
5.0006
 31
0.0000
  0
LINE
  8
112
 10
47.7331
 20
5.0006
 30
0.0000
 11
47.7331
 21
4.5261
 31
0.0000
  0
LINE
  8
112
 10
47.7331
 20
4.5261
 30
0.0000
 11
47.9704
 21
4.2888
 31
0.0000
  0
LINE
  8
112
 10
49.2767
 20
5.2379
 30
0.0000
 11
49.2767
 21
4.5261
 31
0.0000
  0
LINE
  8
112
 10
49.2767
 20
4.5261
 30
0.0000
 11
49.5140
 21
4.2888
 31
0.0000
  0
LINE
  8
112
 10
49.5140
 20
4.2888
 30
0.0000
 11
49.7512
 21
4.5261
 31
0.0000
  0
LINE
  8
112
 10
49.7512
 20
4.5261
 30
0.0000
 11
49.9885
 21
4.2888
 31
0.0000
  0
LINE
  8
112
 10
49.9885
 20
4.2888
 30
0.0000
 11
50.2258
 21
4.5261
 31
0.0000
  0
LINE
  8
112
 10
50.2258
 20
4.5261
 30
0.0000
 11
50.2258
 21
5.2379
 31
0.0000
  0
LINE
  8
112
 10
50.8203
 20
4.2888
 30
0.0000
 11
50.8203
 21
5.7124
 31
0.0000
  0
LINE
  8
112
 10
50.8203
 20
5.7124
 30
0.0000
 11
51.2949
 21
5.2379
 31
0.0000
  0
LINE
  8
112
 10
51.2949
 20
5.2379
 30
0.0000
 11
51.7694
 21
5.7124
 31
0.0000
  0
LINE
  8
112
 10
51.7694
 20
5.7124
 30
0.0000
 11
51.7694
 21
4.2888
 31
0.0000
  0
LINE
  8
112
 10
53.0757
 20
4.2888
 30
0.0000
 11
52.6012
 21
4.2888
 31
0.0000
  0
LINE
  8
112
 10
52.6012
 20
4.2888
 30
0.0000
 11
52.3639
 21
4.5261
 31
0.0000
  0
LINE
  8
112
 10
52.3639
 20
4.5261
 30
0.0000
 11
52.3639
 21
5.0006
 31
0.0000
  0
LINE
  8
112
 10
52.3639
 20
5.0006
 30
0.0000
 11
52.6012
 21
5.2379
 31
0.0000
  0
LINE
  8
112
 10
52.6012
 20
5.2379
 30
0.0000
 11
53.0757
 21
5.2379
 31
0.0000
  0
LINE
  8
112
 10
53.0757
 20
5.2379
 30
0.0000
 11
53.3130
 21
5.0006
 31
0.0000
  0
LINE
  8
112
 10
53.3130
 20
5.0006
 30
0.0000
 11
53.3130
 21
4.7633
 31
0.0000
  0
LINE
  8
112
 10
53.3130
 20
4.7633
 30
0.0000
 11
52.3639
 21
4.7633
 31
0.0000
  0
LINE
  8
112
 10
54.8566
 20
5.2379
 30
0.0000
 11
54.1448
 21
5.2379
 31
0.0000
  0
LINE
  8
112
 10
54.1448
 20
5.2379
 30
0.0000
 11
53.9075
 21
5.0006
 31
0.0000
  0
LINE
  8
112
 10
53.9075
 20
5.0006
 30
0.0000
 11
53.9075
 21
4.5261
 31
0.0000
  0
LINE
  8
112
 10
53.9075
 20
4.5261
 30
0.0000
 11
54.1448
 21
4.2888
 31
0.0000
  0
LINE
  8
112
 10
54.1448
 20
4.2888
 30
0.0000
 11
54.8566
 21
4.2888
 31
0.0000
  0
CIRCLE
  8
20
 10
15.0000
 20
40.0000
 30
0.0000
 40
1.6000
  0
CIRCLE
  8
20
 10
15.0000
 20
30.0000
 30
0.0000
 40
1.6000
  0
CIRCLE
  8
20
 10
55.0000
 20
40.0000
 30
0.0000
 40
1.6000
  0
CIRCLE
  8
20
 10
55.0000
 20
30.0000
 30
0.0000
 40
1.6000
  0
CIRCLE
  8
20
 10
25.0000
 20
15.0000
 30
0.0000
 40
1.6000
  0
CIRCLE
  8
20
 10
45.0000
 20
15.0000
 30
0.0000
 40
1.6000
  0
CIRCLE
  8
20
 10
5.0000
 20
5.0000
 30
0.0000
 40
1.6000
  0
CIRCLE
  8
20
 10
5.0000
 20
65.0000
 30
0.0000
 40
1.6000
  0
CIRCLE
  8
20
 10
65.0000
 20
65.0000
 30
0.0000
 40
1.6000
  0
CIRCLE
  8
20
 10
65.0000
 20
5.0000
 30
0.0000
 40
1.6000
  0
ENDSEC
  0
EOF
